<svg width="90" height="30" viewBox="0 0 173.1 72.402" xmlns="http://www.w3.org/2000/svg">
<g filter="url(#filter0_d)" id="svgGroup" stroke-linecap="round" fill-rule="evenodd" font-size="9pt" stroke="#06b981" stroke-width="0.25mm" fill="black" style="stroke:#06b981;stroke-width:0.25mm;fill:#06b981">
<path d="M 0 44.6 L 0 1.2 L 9.5 1.2 L 9.5 43.1 A 39.482 39.482 0 0 0 9.9 48.911 Q 10.781 54.819 13.6 58.6 A 13.242 13.242 0 0 0 22.056 63.757 A 20.418 20.418 0 0 0 25.9 64.1 A 21.386 21.386 0 0 0 30.904 63.551 A 13.455 13.455 0 0 0 38.6 58.75 A 17.382 17.382 0 0 0 41.396 53.355 Q 42.186 50.936 42.531 47.994 A 42.042 42.042 0 0 0 42.8 43.1 L 42.8 1.2 L 52 1.2 L 52 44.2 A 39.957 39.957 0 0 1 51.378 51.431 A 28.663 28.663 0 0 1 48.75 59.35 Q 45.5 65.7 39.65 69.05 A 25.023 25.023 0 0 1 31.089 72.005 A 32.816 32.816 0 0 1 25.9 72.4 A 32.706 32.706 0 0 1 17.895 71.476 A 22.492 22.492 0 0 1 6.9 65.2 Q 0.788 58.823 0.09 47.582 A 48.096 48.096 0 0 1 0 44.6 Z M 129.9 66.4 L 134 58.9 A 29.424 29.424 0 0 0 137.852 61.33 A 36.526 36.526 0 0 0 140.5 62.6 A 18.21 18.21 0 0 0 144.32 63.749 Q 146.167 64.102 148.29 64.179 A 33.313 33.313 0 0 0 149.5 64.2 Q 156.1 64.2 159.95 60.7 A 11.476 11.476 0 0 0 163.14 56.015 A 11.929 11.929 0 0 0 163.8 52 Q 163.8 48.3 161.8 45.25 Q 159.855 42.284 155.875 40.405 A 21.187 21.187 0 0 0 155.65 40.3 Q 152.443 38.832 147.774 38.499 A 40.356 40.356 0 0 0 144.9 38.4 L 139.3 38.4 L 139.3 31.1 L 144.5 31.1 A 31.908 31.908 0 0 0 148.556 30.858 Q 151.814 30.439 154.25 29.3 A 16.484 16.484 0 0 0 157.151 27.586 A 11.823 11.823 0 0 0 160 24.6 Q 161.9 21.7 161.9 18.5 A 10.072 10.072 0 0 0 161.171 14.611 A 9.418 9.418 0 0 0 158.35 10.9 A 12.755 12.755 0 0 0 151.796 8.139 A 16.888 16.888 0 0 0 149.6 8 Q 144.9 8 141.25 9.55 Q 137.6 11.1 135.3 13 L 131.6 5.9 A 32.63 32.63 0 0 1 134.089 4.407 Q 135.51 3.633 137.19 2.867 A 66.563 66.563 0 0 1 139.3 1.95 A 24.597 24.597 0 0 1 144.745 0.429 Q 147.347 0 150.3 0 Q 156.284 0 160.624 1.973 A 17.976 17.976 0 0 1 161.5 2.4 A 19.376 19.376 0 0 1 165.781 5.388 A 16.398 16.398 0 0 1 168.55 8.75 Q 171 12.7 171 17.3 A 19.531 19.531 0 0 1 170.475 21.94 A 14.587 14.587 0 0 1 168.05 27.2 A 19.553 19.553 0 0 1 163.683 31.457 A 26.455 26.455 0 0 1 159.7 33.8 A 24.812 24.812 0 0 1 165.158 36.653 A 19.796 19.796 0 0 1 169.55 40.85 A 17.3 17.3 0 0 1 173.097 51.314 A 21.406 21.406 0 0 1 173.1 51.7 Q 173.1 56.9 170.55 61.65 A 18.802 18.802 0 0 1 164.918 68.004 A 23.697 23.697 0 0 1 162.75 69.4 Q 158.241 71.977 151.629 72.341 A 40.608 40.608 0 0 1 149.4 72.4 A 40.712 40.712 0 0 1 144.038 72.065 Q 140.8 71.635 138.1 70.65 Q 133.3 68.9 129.9 66.4 Z M 96.9 71.2 L 86.2 71.2 L 60.5 3.7 L 69.8 0.1 L 91.8 60.8 L 113.9 0.4 L 122.5 3.7 L 96.9 71.2 Z" vector-effect="non-scaling-stroke"/>
<defs>
<!-- Note the changes made in filter, ID , x and y, width and height,  -->
<filter id="filter0_d" x="0" y="0" width="173.1" height="72.402" filterUnits="userSpaceOnUse" color-interpolation-filters="sRGB">
<feFlood flood-opacity="0" result="BackgroundImageFix"/>
<feColorMatrix in="SourceAlpha" type="matrix" values="0 0 0 0 0 0 0 0 0 0 0 0 0 0 0 0 0 0 127 0"/>
<feOffset dy="4"/>
<feGaussianBlur stdDeviation="2"/>
<feColorMatrix type="matrix" values="0 0 0 0 0 0 0 0 0 0 0 0 0 0 0 0 0 0 0.25 0"/>
<feBlend mode="normal" in2="BackgroundImageFix" result="effect1_dropShadow"/>
<feBlend mode="normal" in="SourceGraphic" in2="effect1_dropShadow" result="shape"/>
</filter>
</defs>
</g>
</svg>